<svg id="Calendar" xmlns="http://www.w3.org/2000/svg" xmlns:xlink="http://www.w3.org/1999/xlink" width="22.569" height="19.836" viewBox="0 0 22.569 19.836">
  <defs>
    <clipPath id="clip-path">
      <rect id="Rectangle_89" data-name="Rectangle 89" width="22.569" height="19.836" fill="#e84848"/>
    </clipPath>
  </defs>
  <g id="Group_246" data-name="Group 246" clip-path="url(#clip-path)">
    <path id="Path_54" data-name="Path 54" d="M0,99.8c.149-.177.288-.364.448-.53a11.97,11.97,0,0,0,2.457-3.909A15.383,15.383,0,0,0,3.973,90.3c0-.072.012-.144.02-.23H22.555c-.041.522-.067,1.033-.125,1.541a15.86,15.86,0,0,1-1.979,6.2,11.657,11.657,0,0,1-1.916,2.516,1.021,1.021,0,0,1-.767.309q-8.451-.009-16.9,0A.836.836,0,0,1,0,100.149Z" transform="translate(0 -84.766)" fill="#e84848"/>
    <path id="Path_55" data-name="Path 55" d="M68.107,206.018H68.4q6.743,0,13.485,0a2.251,2.251,0,0,0,1.645-.66,13.779,13.779,0,0,0,2.953-4.343c.048-.107.093-.215.162-.376.011.1.021.151.021.2q0,3.537,0,7.073a.673.673,0,0,1-.751.745H68.858a.672.672,0,0,1-.751-.746c0-.623,0-1.247,0-1.9" transform="translate(-64.096 -188.828)" fill="#e84848"/>
    <path id="Path_56" data-name="Path 56" d="M68.087,3.951c0-.683-.01-1.35,0-2.018a.642.642,0,0,1,.7-.611c1,0,2,0,3,0h.265c0-.211,0-.407,0-.6a.664.664,0,1,1,1.322.008c0,.19,0,.379,0,.582h3.306c0-.211,0-.415,0-.619A.661.661,0,1,1,78,.69c0,.2,0,.407,0,.621h3.35c0-.2,0-.4,0-.606A.662.662,0,1,1,82.676.7c0,.2,0,.4,0,.625h3.217a.669.669,0,0,1,.75.744c0,.623,0,1.247,0,1.885Z" transform="translate(-64.075 0)" fill="#e84848"/>
  </g>
</svg>
