<svg xmlns="http://www.w3.org/2000/svg" width="16.5" height="15" viewBox="0 0 16.5 15">
  <path id="LinkedIn" d="M718.5,280h-3.647v-5.273c0-1.38-.57-2.322-1.825-2.322a1.84,1.84,0,0,0-1.741,1.249,2.313,2.313,0,0,0-.079.833V280H707.6s.047-9.341,0-10.19h3.613v1.6a3.3,3.3,0,0,1,3.21-1.7c2.286,0,4.082,1.465,4.082,4.622Zm-14.557-11.465h-.024A1.778,1.778,0,0,1,702,266.769a1.961,1.961,0,1,1,1.943,1.766Zm-1.526,1.275h3.216V280h-3.216Z" transform="translate(-702 -265)" fill="#0077b5" fill-rule="evenodd"/>
</svg>
