<svg id="Money" xmlns="http://www.w3.org/2000/svg" xmlns:xlink="http://www.w3.org/1999/xlink" width="36.193" height="22.132" viewBox="0 0 36.193 22.132">
  <defs>
    <clipPath id="clip-path">
      <rect id="Rectangle_54" data-name="Rectangle 54" width="35.978" height="21.448" fill="#3c404b"/>
    </clipPath>
  </defs>
  <path id="Path_37" data-name="Path 37" d="M3.668,3.668H32.525v14.8H3.668ZM0,22.132H36.193V0H0Z" fill="#3c404b"/>
  <rect id="Rectangle_52" data-name="Rectangle 52" width="3.459" height="3.459" transform="translate(8.41 9.336)" fill="#3c404b"/>
  <rect id="Rectangle_53" data-name="Rectangle 53" width="3.459" height="3.459" transform="translate(24.323 9.336)" fill="#3c404b"/>
  <g id="Group_70" data-name="Group 70" transform="translate(0.107 0.342)">
    <g id="Group_69" data-name="Group 69" clip-path="url(#clip-path)">
      <path id="Path_38" data-name="Path 38" d="M126.951,48c-1.63,0-2.951,2.327-2.951,5.2s1.321,5.2,2.951,5.2,2.951-2.327,2.951-5.2-1.321-5.2-2.951-5.2" transform="translate(-108.945 -42.472)" fill="#3c404b"/>
      <path id="Path_39" data-name="Path 39" d="M12.873,10a2.873,2.873,0,1,0,2.873,2.873A2.873,2.873,0,0,0,12.873,10" transform="translate(-8.885 -9.119)" fill="#3c404b"/>
      <path id="Path_40" data-name="Path 40" d="M11.873,126a2.873,2.873,0,1,0,2.873,2.873A2.873,2.873,0,0,0,11.873,126" transform="translate(-8.007 -110.935)" fill="#3c404b"/>
      <path id="Path_41" data-name="Path 41" d="M241.873,10a2.873,2.873,0,1,0,2.873,2.873A2.873,2.873,0,0,0,241.873,10" transform="translate(-209.884 -9.119)" fill="#3c404b"/>
      <path id="Path_42" data-name="Path 42" d="M240.873,126a2.873,2.873,0,1,0,2.873,2.873A2.873,2.873,0,0,0,240.873,126" transform="translate(-209.006 -110.935)" fill="#3c404b"/>
    </g>
  </g>
</svg>
