<svg xmlns="http://www.w3.org/2000/svg" width="49" height="49" viewBox="0 0 49 49">
  <g id="Question_Mark" data-name="Question Mark" transform="translate(0.271 0.596)">
    <circle id="Ellipse_5" data-name="Ellipse 5" cx="24.5" cy="24.5" r="24.5" transform="translate(-0.271 -0.596)" fill="#3c404b"/>
    <path id="Path_32" data-name="Path 32" d="M110.009,80.868c.307-.272.624-.541.931-.8.6-.509,1.221-1.035,1.779-1.594a7.656,7.656,0,0,0,2.32-6.973,9.176,9.176,0,0,0-17.995-.574,13.314,13.314,0,0,0-.211,1.4c-.011.1-.022.193-.034.291h4.125a5.072,5.072,0,0,1,9.914-1.093,3.649,3.649,0,0,1-.871,3.9c-.385.385-.791.755-1.183,1.113l-.283.258c-.3.278-.62.551-.925.815a19.311,19.311,0,0,0-1.844,1.738,7.075,7.075,0,0,0-1.776,5.543h4.068c0-.179,0-.348-.007-.512a3.291,3.291,0,0,1,.968-2.554,11.812,11.812,0,0,1,.9-.849Z" transform="translate(-82.075 -54.11)" fill="#fff"/>
    <rect id="Rectangle_71" data-name="Rectangle 71" width="4.004" height="4.032" transform="translate(21.91 34.039)" fill="#fff"/>
  </g>
</svg>
